<svg width="1443" height="827" viewBox="0 0 1443 827" fill="none" xmlns="http://www.w3.org/2000/svg">
<g filter="url(#filter0_b_362_161)">
<path d="M111.906 826.856C107.587 826.856 104.348 825.43 101.399 822.537C92.6982 814.097 83.769 805.855 75.1098 797.375C71.7665 794.086 68.1116 792.501 63.2525 792.66C55.8184 792.898 48.3427 792.541 40.9086 792.759C36.3193 792.898 32.8723 791.392 29.6952 788.301C21.5758 780.317 13.3527 772.412 4.94249 764.704C1.45397 761.475 -0.248779 757.929 0.166528 753.332C0.353361 751.45 0.187166 749.548 0.187166 747.666C0.187176 527.925 0.249463 308.204 0.00024061 88.4635C0.000241014 79.6469 2.32613 73.1682 9.32407 67.4226C16.4674 61.5779 22.8841 54.9209 29.4046 48.4224C32.7271 45.1137 36.3609 43.3306 41.2408 43.6872C44.4388 43.925 47.6991 43.7268 50.9178 43.7268C420.339 43.7268 769.669 43.6872 1139.09 43.9052C1148.54 43.9052 1155.64 41.8249 1161.87 34.9103C1168.49 27.5797 1176.22 21.1604 1183.3 14.1864C1186.44 11.1155 1189.82 9.57009 1194.45 9.57009C1236.65 9.68897 1278.86 9.66915 1321.06 9.58991C1325.38 9.57009 1328.62 10.9966 1331.59 13.8892C1340.27 22.3294 1349.2 30.5714 1357.86 39.0511C1361.2 42.34 1364.85 43.9448 1369.71 43.7863C1377.15 43.5486 1384.62 43.8854 1392.06 43.6674C1396.65 43.5288 1400.11 45.0345 1403.27 48.1451C1411.39 56.1097 1419.63 64.0149 1428.02 71.7418C1431.51 74.9514 1433.21 78.5177 1432.8 83.0944C1432.63 84.9766 1432.78 86.8984 1432.78 88.7806C1432.78 308.521 1432.72 528.242 1432.97 747.963C1432.97 756.779 1430.68 763.298 1423.64 769.004C1417.04 774.353 1411.04 780.416 1405.18 786.538C1400.84 791.095 1396.02 792.878 1389.5 792.838C1350.28 792.581 1311.05 792.72 1271.82 792.72L829.433 792.72C643.725 792.719 478.088 792.759 292.401 792.561C284.033 792.541 277.762 794.503 272.176 800.526C265.095 808.134 257.1 814.949 249.666 822.26C246.53 825.331 243.145 826.876 238.515 826.856C196.319 826.757 154.123 826.757 111.906 826.856Z" fill="#123638" fill-opacity="0.66"/>
<path d="M102.096 821.819L102.1 821.823C104.869 824.54 107.859 825.856 111.904 825.856C154.122 825.757 196.32 825.757 238.517 825.856L238.519 825.856C242.865 825.875 246.002 824.447 248.964 821.547C251.851 818.708 254.792 815.97 257.722 813.243C262.42 808.869 267.086 804.525 271.443 799.844C277.267 793.565 283.837 791.54 292.402 791.561C451.322 791.73 595.556 791.726 750.255 791.721C776.311 791.72 802.663 791.719 829.433 791.719L1271.82 791.719C1281.99 791.719 1292.16 791.71 1302.34 791.7C1331.39 791.674 1360.45 791.647 1389.51 791.838C1395.79 791.876 1400.33 790.178 1404.46 785.848L1404.46 785.846C1410.32 779.72 1416.36 773.618 1423.01 768.227C1426.42 765.463 1428.64 762.535 1430.02 759.262C1431.4 755.978 1431.97 752.288 1431.97 747.963C1431.76 564.863 1431.77 381.762 1431.77 198.651C1431.78 162.028 1431.78 125.404 1431.78 88.7806C1431.78 88.2349 1431.76 87.6622 1431.75 87.0744C1431.72 85.7495 1431.68 84.3479 1431.8 83.0064L1431.8 83.004C1432.18 78.7962 1430.65 75.5202 1427.35 72.478L1427.35 72.4776C1418.95 64.7418 1410.69 56.829 1402.57 48.8592L1402.57 48.8576C1399.59 45.9253 1396.38 44.5375 1392.09 44.6673L1392.09 44.6674C1388.42 44.775 1384.74 44.748 1381.08 44.7213L1380.88 44.7198C1377.15 44.6925 1373.44 44.668 1369.75 44.7861C1364.59 44.9543 1360.68 43.229 1357.15 39.7645C1352.53 35.2385 1347.88 30.8189 1343.21 26.3948C1339.1 22.4943 1334.99 18.5903 1330.89 14.6064L1330.89 14.6058C1328.1 11.8858 1325.11 10.5717 1321.06 10.5902L1321.06 10.5903C1278.87 10.6695 1236.65 10.6893 1194.45 10.5704C1190.1 10.5707 1186.96 11.9995 1184 14.9001C1184 14.9004 1184 14.9008 1184 14.9011L1183.3 14.1864C1180.66 16.7911 1177.92 19.3185 1175.19 21.8448C1170.6 26.0826 1166.02 30.3176 1161.87 34.9103L102.096 821.819ZM102.096 821.819C98.0972 817.941 94.0773 814.129 90.0619 810.321C85.2901 805.796 80.5247 801.278 75.8098 796.661C72.2858 793.195 68.3712 791.492 63.2199 791.66C59.5269 791.778 55.8193 791.749 52.0892 791.717L51.8866 791.715C48.2298 791.683 44.551 791.651 40.8793 791.759C36.5841 791.889 33.395 790.503 30.3966 787.588C22.2721 779.598 14.04 771.685 5.61839 763.967C2.31181 760.905 0.78149 757.648 1.16273 753.424C1.29534 752.082 1.25627 750.683 1.21975 749.366C1.20339 748.779 1.18752 748.208 1.18752 747.666C1.18752 711.054 1.18923 674.443 1.19094 637.832C1.19962 454.708 1.2083 271.592 1.00059 88.4624C1.00059 84.141 1.5711 80.4602 2.95916 77.1814C4.34344 73.9114 6.56602 70.9818 9.95759 68.1968C16.1029 63.1687 21.7155 57.5419 27.274 51.9694C28.2203 51.0206 29.1651 50.0734 30.1108 49.1309C33.2749 45.9799 36.6378 44.3538 41.1679 44.6849C43.4145 44.8518 45.7225 44.8078 47.9702 44.765C48.9682 44.746 49.9543 44.7272 50.9178 44.7272C100.439 44.7272 149.6 44.7265 198.496 44.7258C514.356 44.7212 819.191 44.7168 1139.09 44.9055L1139.09 44.9055C1148.72 44.9055 1156.14 42.7692 1162.61 35.5799L102.096 821.819Z" stroke="#6EDFE4" stroke-width="2"/>
</g>
<g filter="url(#filter1_b_362_161)">
<mask id="path-3-inside-1_362_161" fill="white">
<path fill-rule="evenodd" clip-rule="evenodd" d="M0.186898 746.572C0.186899 745.56 0.186901 744.549 0.186905 743.537C0.180542 743.612 0.17365 743.687 0.166196 743.762C0.0774385 744.744 0.0854198 745.679 0.186898 746.572ZM0.186936 738.145C0.187199 704.709 0.188779 671.273 0.190359 637.838C0.192163 599.646 0.193968 561.455 0.19381 523.263C0.193667 558.265 0.192013 593.266 0.190359 628.268C0.18863 664.877 0.1869 701.486 0.186898 738.096C0.186898 738.112 0.186911 738.128 0.186936 738.145ZM0.00959892 87.498C0.00645179 84.6298 0.00325242 81.7616 0 78.8934C3.84451e-07 70.0768 2.32579 63.5981 9.32381 57.8525C15.4273 52.8586 21.0003 47.2717 26.5607 41.6974C27.5081 40.7477 28.4551 39.7983 29.4043 38.8523C32.7268 35.5436 36.3606 33.7605 41.2406 34.1171C43.44 34.2806 45.669 34.238 47.8937 34.1954C48.9036 34.1761 49.9126 34.1567 50.9175 34.1567C100.306 34.1567 149.514 34.156 198.591 34.1553C516.606 34.1508 829.092 34.1463 1149.12 34.3351C1156.02 34.3351 1161.66 33.2281 1166.63 29.9449C1165 31.5633 1163.4 33.2124 1161.87 34.9103C1155.64 41.8249 1148.54 43.9052 1139.09 43.9052C819.19 43.7165 514.355 43.7209 198.493 43.7254C149.598 43.7261 100.438 43.7268 50.9175 43.7268C49.9126 43.7268 48.9036 43.7461 47.8937 43.7655C45.669 43.8081 43.44 43.8507 41.2406 43.6872C36.3606 43.3306 32.7268 45.1137 29.4043 48.4224C28.4551 49.3684 27.5081 50.3178 26.5607 51.2675C21.0003 56.8418 15.4273 62.4287 9.32381 67.4226C2.58375 72.9564 0.177815 79.1703 0.00959892 87.498ZM1175.34 21.7039C1178.02 19.2244 1180.7 16.7427 1183.3 14.1864C1186.44 11.1155 1189.82 9.57009 1194.45 9.57009C1236.65 9.68897 1278.86 9.66916 1321.06 9.58991C1325.38 9.5701 1328.62 10.9966 1331.59 13.8892C1335.65 17.8396 1339.77 21.7466 1343.89 25.6549C1348.57 30.0968 1353.25 34.5403 1357.86 39.0511C1361.2 42.34 1364.85 43.9448 1369.71 43.7863C1373.5 43.6654 1377.29 43.6931 1381.08 43.7209C1384.74 43.7477 1388.41 43.7745 1392.06 43.6674C1396.65 43.5288 1400.11 45.0345 1403.27 48.1451C1411.39 56.1097 1419.63 64.0149 1428.02 71.7418C1431.51 74.9514 1433.21 78.5177 1432.8 83.0944C1432.69 84.3793 1432.72 85.6827 1432.75 86.9793C1432.76 87.582 1432.78 88.1833 1432.78 88.7806C1432.78 125.393 1432.78 162.004 1432.77 198.615C1432.77 381.739 1432.76 564.851 1432.97 747.963C1432.97 754.163 1431.84 759.226 1428.72 763.669C1430.34 762.218 1431.99 760.803 1433.68 759.434C1440.72 753.728 1443 747.209 1443 738.393C1442.79 555.221 1442.8 372.049 1442.81 188.865C1442.81 152.314 1442.81 115.763 1442.81 79.2105C1442.81 78.613 1442.8 78.0116 1442.78 77.4087C1442.75 76.1122 1442.72 74.809 1442.83 73.5243C1443.25 68.9476 1441.55 65.3813 1438.06 62.1717C1429.67 54.4448 1421.42 46.5396 1413.31 38.575C1410.15 35.4644 1406.68 33.9587 1402.09 34.0974C1398.44 34.2044 1394.78 34.1776 1391.12 34.1508C1387.32 34.123 1383.53 34.0953 1379.75 34.2162C1374.89 34.3747 1371.23 32.7699 1367.89 29.481C1363.28 24.9702 1358.6 20.5267 1353.92 16.0848C1349.8 12.1765 1345.68 8.26954 1341.62 4.31914C1338.65 1.42651 1335.41 5.70345e-06 1331.09 0.019818C1288.9 0.0990663 1246.68 0.118877 1204.49 0C1199.86 0 1196.47 1.54538 1193.33 4.61632C1190.69 7.22109 1187.96 9.74847 1185.22 12.2749C1181.87 15.3724 1178.52 18.4685 1175.34 21.7039ZM1419.72 772.319C1418.2 773.858 1416.7 775.411 1415.22 776.968C1413.97 778.274 1412.69 779.352 1411.34 780.225C1414.05 777.511 1416.83 774.856 1419.72 772.319Z"/>
</mask>
<path fill-rule="evenodd" clip-rule="evenodd" d="M0.186898 746.572C0.186899 745.56 0.186901 744.549 0.186905 743.537C0.180542 743.612 0.17365 743.687 0.166196 743.762C0.0774385 744.744 0.0854198 745.679 0.186898 746.572ZM0.186936 738.145C0.187199 704.709 0.188779 671.273 0.190359 637.838C0.192163 599.646 0.193968 561.455 0.19381 523.263C0.193667 558.265 0.192013 593.266 0.190359 628.268C0.18863 664.877 0.1869 701.486 0.186898 738.096C0.186898 738.112 0.186911 738.128 0.186936 738.145ZM0.00959892 87.498C0.00645179 84.6298 0.00325242 81.7616 0 78.8934C3.84451e-07 70.0768 2.32579 63.5981 9.32381 57.8525C15.4273 52.8586 21.0003 47.2717 26.5607 41.6974C27.5081 40.7477 28.4551 39.7983 29.4043 38.8523C32.7268 35.5436 36.3606 33.7605 41.2406 34.1171C43.44 34.2806 45.669 34.238 47.8937 34.1954C48.9036 34.1761 49.9126 34.1567 50.9175 34.1567C100.306 34.1567 149.514 34.156 198.591 34.1553C516.606 34.1508 829.092 34.1463 1149.12 34.3351C1156.02 34.3351 1161.66 33.2281 1166.63 29.9449C1165 31.5633 1163.4 33.2124 1161.87 34.9103C1155.64 41.8249 1148.54 43.9052 1139.09 43.9052C819.19 43.7165 514.355 43.7209 198.493 43.7254C149.598 43.7261 100.438 43.7268 50.9175 43.7268C49.9126 43.7268 48.9036 43.7461 47.8937 43.7655C45.669 43.8081 43.44 43.8507 41.2406 43.6872C36.3606 43.3306 32.7268 45.1137 29.4043 48.4224C28.4551 49.3684 27.5081 50.3178 26.5607 51.2675C21.0003 56.8418 15.4273 62.4287 9.32381 67.4226C2.58375 72.9564 0.177815 79.1703 0.00959892 87.498ZM1175.34 21.7039C1178.02 19.2244 1180.7 16.7427 1183.3 14.1864C1186.44 11.1155 1189.82 9.57009 1194.45 9.57009C1236.65 9.68897 1278.86 9.66916 1321.06 9.58991C1325.38 9.5701 1328.62 10.9966 1331.59 13.8892C1335.65 17.8396 1339.77 21.7466 1343.89 25.6549C1348.57 30.0968 1353.25 34.5403 1357.86 39.0511C1361.2 42.34 1364.85 43.9448 1369.71 43.7863C1373.5 43.6654 1377.29 43.6931 1381.08 43.7209C1384.74 43.7477 1388.41 43.7745 1392.06 43.6674C1396.65 43.5288 1400.11 45.0345 1403.27 48.1451C1411.39 56.1097 1419.63 64.0149 1428.02 71.7418C1431.51 74.9514 1433.21 78.5177 1432.8 83.0944C1432.69 84.3793 1432.72 85.6827 1432.75 86.9793C1432.76 87.582 1432.78 88.1833 1432.78 88.7806C1432.78 125.393 1432.78 162.004 1432.77 198.615C1432.77 381.739 1432.76 564.851 1432.97 747.963C1432.97 754.163 1431.84 759.226 1428.72 763.669C1430.34 762.218 1431.99 760.803 1433.68 759.434C1440.72 753.728 1443 747.209 1443 738.393C1442.79 555.221 1442.8 372.049 1442.81 188.865C1442.81 152.314 1442.81 115.763 1442.81 79.2105C1442.81 78.613 1442.8 78.0116 1442.78 77.4087C1442.75 76.1122 1442.72 74.809 1442.83 73.5243C1443.25 68.9476 1441.55 65.3813 1438.06 62.1717C1429.67 54.4448 1421.42 46.5396 1413.31 38.575C1410.15 35.4644 1406.68 33.9587 1402.09 34.0974C1398.44 34.2044 1394.78 34.1776 1391.12 34.1508C1387.32 34.123 1383.53 34.0953 1379.75 34.2162C1374.89 34.3747 1371.23 32.7699 1367.89 29.481C1363.28 24.9702 1358.6 20.5267 1353.92 16.0848C1349.8 12.1765 1345.68 8.26954 1341.62 4.31914C1338.65 1.42651 1335.41 5.70345e-06 1331.09 0.019818C1288.9 0.0990663 1246.68 0.118877 1204.49 0C1199.86 0 1196.47 1.54538 1193.33 4.61632C1190.69 7.22109 1187.96 9.74847 1185.22 12.2749C1181.87 15.3724 1178.52 18.4685 1175.34 21.7039ZM1419.72 772.319C1418.2 773.858 1416.7 775.411 1415.22 776.968C1413.97 778.274 1412.69 779.352 1411.34 780.225C1414.05 777.511 1416.83 774.856 1419.72 772.319Z" fill="#6EDFE4"/>
<path d="M0.186898 746.572L-1.80103 746.798L2.1876 746.572H0.186898ZM0.186905 743.537H2.18761L-1.80665 743.368L0.186905 743.537ZM0.166196 743.762L-1.82471 743.564L-1.82559 743.573L-1.82639 743.582L0.166196 743.762ZM0.186936 738.145L-1.81376 738.148L2.18764 738.145H0.186936ZM0.190359 637.838L2.19106 637.838L0.190359 637.838ZM0.19381 523.263H2.19451H-1.80689H0.19381ZM0.190359 628.268L-1.81034 628.268L0.190359 628.268ZM0.186898 738.096H-1.8138H0.186898ZM0.00959892 87.498L-1.9911 87.5002L2.00989 87.5384L0.00959892 87.498ZM0 78.8934H-2.0007L-2.0007 78.8957L0 78.8934ZM9.32381 57.8525L8.05688 56.3041L8.05425 56.3062L9.32381 57.8525ZM26.5607 41.6974L25.1442 40.2844L26.5607 41.6974ZM29.4043 38.8523L27.9925 37.4347L27.9919 37.4352L29.4043 38.8523ZM41.2406 34.1171L41.3889 32.1219L41.3864 32.1217L41.2406 34.1171ZM47.8937 34.1954L47.8554 32.195H47.8554L47.8937 34.1954ZM50.9175 34.1567L50.9175 32.156H50.9175V34.1567ZM198.591 34.1553L198.591 32.1546L198.591 34.1553ZM1149.12 34.3351L1149.12 36.3358H1149.12V34.3351ZM1166.63 29.9449L1168.04 31.365L1165.52 28.2758L1166.63 29.9449ZM1161.87 34.9103L1160.39 33.5689L1160.38 33.5711L1161.87 34.9103ZM1139.09 43.9052L1139.09 45.9059H1139.09V43.9052ZM198.493 43.7254L198.493 45.7261L198.493 43.7254ZM50.9175 43.7268L50.9175 41.7261H50.9175V43.7268ZM47.8937 43.7655L47.932 45.7658H47.932L47.8937 43.7655ZM41.2406 43.6872L41.3889 41.692L41.3864 41.6918L41.2406 43.6872ZM29.4043 48.4224L27.9925 47.0047L27.9919 47.0053L29.4043 48.4224ZM26.5607 51.2675L25.1442 49.8546L26.5607 51.2675ZM9.32381 67.4226L8.05688 65.8742L8.05425 65.8763L9.32381 67.4226ZM1175.34 21.7039L1173.91 20.3012L1176.7 23.1731L1175.34 21.7039ZM1183.3 14.1864L1181.9 12.757L1181.9 12.761L1183.3 14.1864ZM1194.45 9.57009L1194.46 7.56939H1194.45V9.57009ZM1321.06 9.58991L1321.06 11.5906L1321.07 11.5906L1321.06 9.58991ZM1331.59 13.8892L1330.19 15.3224L1330.19 15.3236L1331.59 13.8892ZM1343.89 25.6549L1345.26 24.2036L1345.26 24.2036L1343.89 25.6549ZM1357.86 39.0511L1359.26 37.6249L1359.26 37.6217L1357.86 39.0511ZM1369.71 43.7863L1369.65 41.7866L1369.65 41.7867L1369.71 43.7863ZM1381.08 43.7209L1381.07 45.7215L1381.08 43.7209ZM1392.06 43.6674L1392.12 45.6673L1392.12 45.6672L1392.06 43.6674ZM1403.27 48.1451L1401.87 49.5701L1401.87 49.5733L1403.27 48.1451ZM1428.02 71.7418L1426.67 73.2134L1426.67 73.2142L1428.02 71.7418ZM1432.8 83.0944L1430.81 82.9136L1430.81 82.9184L1432.8 83.0944ZM1432.75 86.9793L1434.75 86.9307V86.9305L1432.75 86.9793ZM1432.77 198.615L1434.78 198.615L1432.77 198.615ZM1432.97 747.963H1434.97V747.961L1432.97 747.963ZM1428.72 763.669L1427.08 762.52L1430.05 765.159L1428.72 763.669ZM1433.68 759.434L1434.94 760.988L1434.94 760.988L1433.68 759.434ZM1443 738.393H1445V738.391L1443 738.393ZM1442.81 188.865L1444.81 188.865L1442.81 188.865ZM1442.78 77.4087L1444.78 77.3601V77.3599L1442.78 77.4087ZM1442.83 73.5243L1440.84 73.3435L1440.84 73.3483L1442.83 73.5243ZM1438.06 62.1717L1436.7 63.6433L1436.7 63.6441L1438.06 62.1717ZM1413.31 38.575L1411.9 40L1411.9 40.0032L1413.31 38.575ZM1402.09 34.0974L1402.15 36.0972L1402.15 36.0971L1402.09 34.0974ZM1391.12 34.1508L1391.1 36.1515L1391.12 34.1508ZM1379.75 34.2162L1379.68 32.2166L1379.68 32.2166L1379.75 34.2162ZM1367.89 29.481L1369.29 28.0548L1369.29 28.0516L1367.89 29.481ZM1353.92 16.0848L1355.3 14.6335L1355.3 14.6335L1353.92 16.0848ZM1341.62 4.31914L1340.23 5.75229L1340.23 5.75353L1341.62 4.31914ZM1331.09 0.019818L1331.1 2.02052L1331.1 2.0205L1331.09 0.019818ZM1204.49 0L1204.49 -2.0007H1204.49V0ZM1193.33 4.61632L1191.93 3.18694L1191.93 3.19088L1193.33 4.61632ZM1185.22 12.2749L1186.58 13.7441V13.7441L1185.22 12.2749ZM1419.72 772.319L1421.14 773.723L1418.4 770.817L1419.72 772.319ZM1415.22 776.968L1413.77 775.585L1413.77 775.588L1415.22 776.968ZM1411.34 780.225L1409.92 778.809L1412.42 781.906L1411.34 780.225ZM2.1876 746.572C2.1876 745.56 2.1876 744.549 2.18761 743.537H-1.8138C-1.8138 744.549 -1.8138 745.56 -1.8138 746.572H2.1876ZM2.1571 743.96C2.16555 743.875 2.17332 743.79 2.18046 743.706L-1.80665 743.368C-1.81224 743.434 -1.81825 743.499 -1.82471 743.564L2.1571 743.96ZM2.17482 746.346C2.08978 745.598 2.08129 744.8 2.15878 743.942L-1.82639 743.582C-1.92641 744.689 -1.91894 745.76 -1.80103 746.798L2.17482 746.346ZM2.18764 738.145C2.1879 704.709 2.18948 671.273 2.19106 637.838L-1.81034 637.838C-1.81192 671.273 -1.8135 704.709 -1.81377 738.145H2.18764ZM2.19106 637.838C2.19287 599.646 2.19467 561.455 2.19451 523.263H-1.80689C-1.80673 561.455 -1.80854 599.646 -1.81034 637.838L2.19106 637.838ZM2.19106 628.268C2.19271 593.266 2.19437 558.265 2.19451 523.263H-1.80689C-1.80703 558.265 -1.80869 593.266 -1.81034 628.268L2.19106 628.268ZM2.1876 738.096C2.1876 701.486 2.18933 664.877 2.19106 628.268L-1.81034 628.268C-1.81207 664.877 -1.8138 701.486 -1.8138 738.096H2.1876ZM2.18763 738.142C2.18761 738.126 2.1876 738.111 2.1876 738.096H-1.8138C-1.8138 738.113 -1.81379 738.13 -1.81376 738.148L2.18763 738.142ZM2.0103 87.4958C2.00715 84.6276 2.00395 81.7594 2.0007 78.8911L-2.0007 78.8957C-1.99745 81.7638 -1.99425 84.632 -1.9911 87.5002L2.0103 87.4958ZM2.0007 78.8934C2.0007 74.6566 2.5603 71.119 3.88007 68.0013C5.19274 64.9004 7.30762 62.0965 10.5934 59.3988L8.05425 56.3062C4.34198 59.3541 1.79496 62.6624 0.195227 66.4414C-1.3974 70.2037 -2.0007 74.3136 -2.0007 78.8934H2.0007ZM10.5907 59.401C16.7855 54.3324 22.4287 48.6727 27.9772 43.1103L25.1442 40.2844C19.5718 45.8708 14.0692 51.3848 8.05688 56.3041L10.5907 59.401ZM27.9772 43.1103C28.9249 42.1603 29.8698 41.213 30.8166 40.2694L27.9919 37.4352C27.0403 38.3836 26.0913 39.3351 25.1442 40.2844L27.9772 43.1103ZM30.816 40.27C33.8225 37.276 36.9145 35.807 41.0947 36.1125L41.3864 32.1217C35.8067 31.714 31.6311 33.8112 27.9925 37.4347L30.816 40.27ZM41.0922 36.1123C43.4006 36.2839 45.7237 36.238 47.932 36.1957L47.8554 32.195C45.6144 32.2379 43.4794 32.2773 41.3889 32.1219L41.0922 36.1123ZM47.932 36.1957C48.9451 36.1763 49.9349 36.1574 50.9175 36.1574V32.156C49.8902 32.156 48.862 32.1758 47.8554 32.195L47.932 36.1957ZM50.9175 36.1574C100.306 36.1574 149.514 36.1567 198.591 36.156L198.591 32.1546C149.514 32.1553 100.306 32.156 50.9175 32.156L50.9175 36.1574ZM198.591 36.156C516.606 36.1515 829.092 36.147 1149.12 36.3358L1149.13 32.3344C829.092 32.1456 516.606 32.1501 198.591 32.1546L198.591 36.156ZM1149.12 36.3358C1156.23 36.3358 1162.31 35.1949 1167.73 31.614L1165.52 28.2758C1161.01 31.2612 1155.8 32.3344 1149.12 32.3344V36.3358ZM1163.35 36.2517C1164.86 34.5865 1166.43 32.964 1168.04 31.365L1165.22 28.5248C1163.57 30.1625 1161.95 31.8382 1160.39 33.5689L1163.35 36.2517ZM1139.09 45.9059C1148.91 45.9059 1156.63 43.7135 1163.36 36.2495L1160.38 33.5711C1154.65 39.9362 1148.17 41.9045 1139.09 41.9045V45.9059ZM198.493 45.7261C514.355 45.7216 819.189 45.7172 1139.09 45.9059L1139.09 41.9045C819.19 41.7157 514.354 41.7202 198.493 41.7247L198.493 45.7261ZM50.9175 45.7275C100.438 45.7275 149.598 45.7268 198.493 45.7261L198.493 41.7247C149.598 41.7254 100.438 41.7261 50.9175 41.7261L50.9175 45.7275ZM47.932 45.7658C48.9451 45.7464 49.9349 45.7275 50.9175 45.7275V41.7261C49.8902 41.7261 48.862 41.7459 47.8554 41.7651L47.932 45.7658ZM41.0922 45.6824C43.4006 45.854 45.7237 45.8081 47.932 45.7658L47.8554 41.7651C45.6143 41.808 43.4794 41.8474 41.3889 41.692L41.0922 45.6824ZM30.816 49.8401C33.8225 46.8461 36.9145 45.3771 41.0947 45.6826L41.3864 41.6918C35.8067 41.2841 31.6311 43.3813 27.9925 47.0047L30.816 49.8401ZM27.9772 52.6804C28.9249 51.7304 29.8698 50.7831 30.8166 49.8395L27.9919 47.0053C27.0403 47.9537 26.0912 48.9052 25.1442 49.8546L27.9772 52.6804ZM10.5907 68.9711C16.7855 63.9025 22.4287 58.2428 27.9772 52.6804L25.1442 49.8546C19.5718 55.4409 14.0692 60.9549 8.05688 65.8742L10.5907 68.9711ZM2.00989 87.5384C2.09034 83.5556 2.70359 80.2016 4.0296 77.2273C5.35026 74.2649 7.42737 71.5683 10.5934 68.9689L8.05425 65.8763C4.48019 68.8107 1.9843 71.988 0.37493 75.5979C-1.2291 79.1959 -1.90293 83.1126 -1.99069 87.4576L2.00989 87.5384ZM1176.7 23.1731C1179.38 20.6966 1182.08 18.1939 1184.7 15.6118L1181.9 12.761C1179.33 15.2915 1176.67 17.7523 1173.98 20.2346L1176.7 23.1731ZM1184.7 15.6158C1187.49 12.8835 1190.38 11.5708 1194.45 11.5708V7.56939C1189.26 7.56939 1185.38 9.34742 1181.9 12.757L1184.7 15.6158ZM1194.45 11.5708C1236.65 11.6897 1278.87 11.6699 1321.06 11.5906L1321.06 7.58921C1278.86 7.66845 1236.65 7.68826 1194.46 7.5694L1194.45 11.5708ZM1321.07 11.5906C1324.83 11.5733 1327.58 12.7749 1330.19 15.3224L1332.98 12.4561C1329.66 9.21827 1325.92 7.56687 1321.05 7.58923L1321.07 11.5906ZM1330.19 15.3236C1334.27 19.2839 1338.39 23.1993 1342.51 27.1062L1345.26 24.2036C1341.14 20.2939 1337.03 16.3953 1332.98 12.4548L1330.19 15.3236ZM1342.51 27.1062C1347.19 31.5499 1351.86 35.9826 1356.46 40.4806L1359.26 37.6217C1354.64 33.098 1349.94 28.6437 1345.26 24.2036L1342.51 27.1062ZM1356.45 40.4774C1360.15 44.1177 1364.33 45.9638 1369.78 45.786L1369.65 41.7867C1365.38 41.9259 1362.24 40.5623 1359.26 37.6249L1356.45 40.4774ZM1369.78 45.786C1373.51 45.6665 1377.27 45.6937 1381.07 45.7215L1381.1 41.7202C1377.31 41.6925 1373.48 41.6642 1369.65 41.7866L1369.78 45.786ZM1381.07 45.7215C1384.72 45.7483 1388.42 45.7756 1392.12 45.6673L1392 41.6676C1388.39 41.7734 1384.76 41.7471 1381.1 41.7202L1381.07 45.7215ZM1392.12 45.6672C1396.12 45.5462 1399.07 46.8161 1401.87 49.5701L1404.67 46.7201C1401.16 43.2529 1397.17 41.5113 1392 41.6677L1392.12 45.6672ZM1401.87 49.5733C1410 57.5483 1418.26 65.4686 1426.67 73.2134L1429.38 70.2702C1421.01 62.5612 1412.78 54.6711 1404.67 46.7168L1401.87 49.5733ZM1426.67 73.2142C1429.79 76.089 1431.15 79.0748 1430.81 82.9136L1434.79 83.2752C1435.27 77.9606 1433.23 73.8138 1429.38 70.2694L1426.67 73.2142ZM1430.81 82.9184C1430.68 84.3344 1430.72 85.7509 1430.75 87.0281L1434.75 86.9305C1434.72 85.6145 1434.69 84.4242 1434.79 83.2703L1430.81 82.9184ZM1430.75 87.028C1430.76 87.635 1430.78 88.2118 1430.78 88.7806H1434.78C1434.78 88.1548 1434.76 87.5291 1434.75 86.9307L1430.75 87.028ZM1430.78 88.7806C1430.78 125.392 1430.78 162.004 1430.77 198.615L1434.78 198.615C1434.78 162.004 1434.78 125.393 1434.78 88.7806H1430.78ZM1430.77 198.615C1430.77 381.738 1430.76 564.852 1430.96 747.965L1434.97 747.961C1434.76 564.85 1434.77 381.739 1434.78 198.615L1430.77 198.615ZM1430.96 747.963C1430.96 753.911 1429.88 758.524 1427.08 762.52L1430.36 764.819C1433.79 759.928 1434.97 754.414 1434.97 747.963H1430.96ZM1432.42 757.879C1430.7 759.272 1429.02 760.709 1427.38 762.18L1430.05 765.159C1431.65 763.727 1433.27 762.334 1434.94 760.988L1432.42 757.879ZM1441 738.393C1441 742.634 1440.45 746.182 1439.13 749.303C1437.83 752.406 1435.72 755.205 1432.42 757.88L1434.94 760.988C1438.68 757.956 1441.23 754.644 1442.82 750.856C1444.41 747.088 1445 742.968 1445 738.393H1441ZM1440.81 188.865C1440.8 372.048 1440.79 555.222 1441 738.395L1445 738.391C1444.79 555.22 1444.8 372.049 1444.81 188.865L1440.81 188.865ZM1440.81 79.2105C1440.81 115.763 1440.81 152.314 1440.81 188.865L1444.81 188.865C1444.81 152.314 1444.81 115.763 1444.81 79.2105H1440.81ZM1440.78 77.4573C1440.8 78.0645 1440.81 78.6415 1440.81 79.2105H1444.81C1444.81 78.5846 1444.8 77.9587 1444.78 77.3601L1440.78 77.4573ZM1440.84 73.3483C1440.72 74.7642 1440.75 76.1806 1440.78 77.4575L1444.78 77.3599C1444.75 76.0438 1444.72 74.8539 1444.83 73.7003L1440.84 73.3483ZM1436.7 63.6441C1439.83 66.5189 1441.19 69.5047 1440.84 73.3435L1444.83 73.7051C1445.31 68.3905 1443.26 64.2437 1439.41 60.6993L1436.7 63.6441ZM1411.9 40.0032C1420.03 47.9782 1428.29 55.8985 1436.7 63.6433L1439.41 60.7001C1431.04 52.9911 1422.81 45.101 1414.71 37.1467L1411.9 40.0032ZM1402.15 36.0971C1406.16 35.9761 1409.11 37.246 1411.9 40L1414.71 37.15C1411.19 33.6828 1407.2 31.9412 1402.03 32.0976L1402.15 36.0971ZM1391.1 36.1515C1394.76 36.1782 1398.46 36.2055 1402.15 36.0972L1402.03 32.0975C1398.42 32.2033 1394.8 32.177 1391.13 32.1502L1391.1 36.1515ZM1379.81 36.2159C1383.55 36.0964 1387.3 36.1236 1391.1 36.1515L1391.13 32.1502C1387.34 32.1224 1383.51 32.0941 1379.68 32.2166L1379.81 36.2159ZM1366.49 30.9073C1370.19 34.5476 1374.36 36.3937 1379.81 36.2159L1379.68 32.2166C1375.42 32.3558 1372.28 30.9922 1369.29 28.0548L1366.49 30.9073ZM1352.54 17.5361C1357.23 21.9798 1361.9 26.4125 1366.49 30.9105L1369.29 28.0516C1364.67 23.5279 1359.98 19.0736 1355.3 14.6335L1352.54 17.5361ZM1340.23 5.75353C1344.3 9.71385 1348.43 13.6292 1352.54 17.5361L1355.3 14.6335C1351.18 10.7238 1347.07 6.82522 1343.02 2.88474L1340.23 5.75353ZM1331.1 2.0205C1334.87 2.00323 1337.61 3.20484 1340.23 5.75228L1343.02 2.88599C1339.69 -0.351824 1335.96 -2.00322 1331.08 -1.98086L1331.1 2.0205ZM1204.48 2.00069C1246.68 2.11958 1288.9 2.09977 1331.1 2.02052L1331.09 -1.98088C1288.9 -1.90164 1246.68 -1.88183 1204.49 -2.00069L1204.48 2.00069ZM1194.73 6.04569C1197.52 3.31342 1200.42 2.0007 1204.49 2.0007V-2.0007C1199.29 -2.0007 1195.42 -0.222667 1191.93 3.18694L1194.73 6.04569ZM1186.58 13.7441C1189.31 11.2214 1192.07 8.67254 1194.74 6.04175L1191.93 3.19088C1189.31 5.76964 1186.6 8.27555 1183.86 10.8056L1186.58 13.7441ZM1176.77 23.1065C1179.91 19.911 1183.22 16.8473 1186.58 13.7441L1183.86 10.8056C1180.52 13.8976 1177.13 17.026 1173.91 20.3012L1176.77 23.1065ZM1418.29 770.915C1416.77 772.463 1415.26 774.024 1413.77 775.585L1416.66 778.351C1418.15 776.798 1419.64 775.252 1421.14 773.723L1418.29 770.915ZM1413.77 775.588C1412.62 776.794 1411.45 777.767 1410.25 778.544L1412.42 781.906C1413.92 780.937 1415.32 779.754 1416.66 778.348L1413.77 775.588ZM1418.4 770.817C1415.47 773.389 1412.66 776.075 1409.92 778.809L1412.75 781.641C1415.45 778.947 1418.2 776.323 1421.04 773.822L1418.4 770.817Z" fill="#6EDFE4" mask="url(#path-3-inside-1_362_161)"/>
</g>
<defs>
<filter id="filter0_b_362_161" x="-15.0053" y="-5.43516" width="1462.98" height="847.297" filterUnits="userSpaceOnUse" color-interpolation-filters="sRGB">
<feFlood flood-opacity="0" result="BackgroundImageFix"/>
<feGaussianBlur in="BackgroundImageFix" stdDeviation="7.5"/>
<feComposite in2="SourceAlpha" operator="in" result="effect1_backgroundBlur_362_161"/>
<feBlend mode="normal" in="SourceGraphic" in2="effect1_backgroundBlur_362_161" result="shape"/>
</filter>
<filter id="filter1_b_362_161" x="-25.0088" y="-25.0088" width="1493.02" height="830.243" filterUnits="userSpaceOnUse" color-interpolation-filters="sRGB">
<feFlood flood-opacity="0" result="BackgroundImageFix"/>
<feGaussianBlur in="BackgroundImageFix" stdDeviation="12.5"/>
<feComposite in2="SourceAlpha" operator="in" result="effect1_backgroundBlur_362_161"/>
<feBlend mode="normal" in="SourceGraphic" in2="effect1_backgroundBlur_362_161" result="shape"/>
</filter>
</defs>
</svg>
