<svg width="1158" height="822" viewBox="0 0 1158 822" fill="none" xmlns="http://www.w3.org/2000/svg">
<g filter="url(#filter0_b_362_67)">
<path d="M111.518 822C107.214 822 103.986 820.582 101.047 817.706C92.3768 809.315 83.4785 801.122 74.8492 792.692C71.5175 789.422 67.8753 787.847 63.033 788.004C55.6247 788.241 48.1749 787.886 40.7666 788.103C36.1932 788.241 32.7581 786.744 29.592 783.671C21.5008 775.734 13.3061 767.875 4.92514 760.213C1.44857 757.002 -0.248203 753.477 0.165615 748.907C0.351895 747.036 0.186245 745.145 0.186246 743.274C0.186256 524.824 0.248277 306.394 -3.60346e-06 87.9439C-3.20076e-06 79.1791 2.31775 72.7385 9.2915 67.0266C16.4102 61.2162 22.8046 54.5983 29.3024 48.138C32.6134 44.8487 36.2346 43.0761 41.0977 43.4306C44.2845 43.667 47.5336 43.47 50.7411 43.47C418.882 43.47 487.002 43.4306 855.143 43.6473C864.559 43.6473 871.636 41.5792 877.844 34.7052C884.445 27.4177 892.143 21.0361 899.2 14.1031C902.324 11.0502 905.698 9.51388 910.312 9.51388C952.362 9.63205 994.432 9.61236 1036.48 9.53358C1040.79 9.51388 1044.01 10.932 1046.97 13.8076C1055.62 22.1982 1064.52 30.3918 1073.15 38.8218C1076.48 42.0913 1080.12 43.6867 1084.97 43.5291C1092.38 43.2928 1099.83 43.6276 1107.23 43.411C1111.81 43.2731 1115.26 44.77 1118.41 47.8623C1126.5 55.7801 1134.71 63.6389 1143.07 71.3204C1146.55 74.5112 1148.25 78.0565 1147.83 82.6063C1147.67 84.4774 1147.81 86.388 1147.81 88.2591C1147.81 306.709 1147.75 525.139 1148 743.57C1148 752.334 1145.72 758.815 1138.71 764.487C1132.13 769.805 1126.15 775.832 1120.31 781.918C1115.99 786.448 1111.19 788.221 1104.69 788.182C1065.6 787.925 1026.51 788.063 987.417 788.063L546.558 788.063C361.495 788.063 476.431 788.103 291.388 787.906C283.048 787.886 276.799 789.836 271.232 795.824C264.176 803.387 256.209 810.162 248.8 817.43C245.676 820.483 242.303 822.019 237.688 822C195.638 821.901 153.589 821.901 111.518 822Z" fill="#123638" fill-opacity="0.66"/>
<path d="M101.747 816.991L101.743 816.987C97.7583 813.131 93.7523 809.342 89.7509 805.557C84.9956 801.059 80.2467 796.567 75.5481 791.976C72.0356 788.53 68.134 786.838 63.0006 787.005C59.3204 787.122 55.6257 787.093 51.9084 787.061L51.7099 787.059C48.0647 787.028 44.3974 786.996 40.7374 787.103C36.4574 787.232 33.2793 785.854 30.2923 782.957C22.1972 775.016 13.9947 767.149 5.6036 759.478C2.30661 756.434 0.781826 753.198 1.16134 749C1.29367 747.665 1.25497 746.273 1.21835 744.964C1.20211 744.38 1.18625 743.813 1.18625 743.274C1.18625 706.889 1.18796 670.505 1.18967 634.121C1.19834 452.061 1.2069 270.009 0.999996 87.9428C0.999997 83.6475 1.56848 79.9894 2.95117 76.731C4.33032 73.481 6.54492 70.5688 9.92517 67.8002C16.0498 62.801 21.6434 57.2067 27.1827 51.6667C28.1251 50.7242 29.0659 49.7833 30.0074 48.8471C33.1599 45.7154 36.5107 44.0989 41.0249 44.428C43.2638 44.5939 45.5637 44.5502 47.8036 44.5076C48.7982 44.4887 49.7809 44.47 50.7411 44.47C104.521 44.47 151.897 44.4692 194.742 44.4684C445.187 44.464 540.781 44.4623 855.142 44.6473L855.143 44.6473C864.741 44.6473 872.129 42.5239 878.585 35.3766C882.698 30.836 887.197 26.689 891.737 22.5041C894.468 19.9869 897.214 17.456 899.899 14.8175C902.851 11.9346 905.977 10.5142 910.311 10.5139C952.362 10.6321 994.434 10.6124 1036.48 10.5336L1036.49 10.5336C1040.51 10.5151 1043.49 11.8215 1046.28 14.5248L1046.28 14.5254C1050.36 18.486 1054.46 22.3672 1058.56 26.2447C1063.2 30.6429 1067.85 35.0365 1072.45 39.5362C1075.96 42.9806 1079.86 44.6956 1085 44.5286C1088.68 44.4112 1092.38 44.4355 1096.09 44.4626L1096.3 44.4641C1099.94 44.4907 1103.61 44.5175 1107.26 44.4105L1107.26 44.4105C1111.55 44.2814 1114.74 45.6611 1117.71 48.5754L1117.71 48.577C1125.81 56.5 1134.03 64.3663 1142.4 72.0568L1142.4 72.0571C1145.69 75.0809 1147.22 78.3358 1146.84 82.5157L1146.84 82.5182C1146.72 83.8523 1146.75 85.2464 1146.79 86.5637C1146.8 87.1479 1146.81 87.717 1146.81 88.2591C1146.81 124.668 1146.81 161.076 1146.81 197.484C1146.8 379.52 1146.79 561.545 1147 743.57C1147 747.869 1146.44 751.536 1145.06 754.799C1143.69 758.052 1141.48 760.962 1138.08 763.709C1131.45 769.07 1125.43 775.136 1119.59 781.226L1119.59 781.228C1115.48 785.532 1110.96 787.22 1104.69 787.182C1075.74 786.992 1046.78 787.018 1017.82 787.045C1007.69 787.054 997.551 787.063 987.417 787.063L546.558 787.063C454.024 787.063 436.494 787.073 418.965 787.058C401.436 787.044 383.908 787.004 291.39 786.906C282.853 786.885 276.306 788.898 270.501 795.141C266.159 799.795 261.509 804.114 256.827 808.461C253.908 811.172 250.977 813.894 248.1 816.716C245.149 819.599 242.023 821.018 237.692 821L237.69 821C195.639 820.901 153.588 820.901 111.516 821C107.485 820.999 104.506 819.691 101.747 816.991Z" stroke="#6EDFE4" stroke-width="2"/>
</g>
<g filter="url(#filter1_b_362_67)">
<mask id="path-3-inside-1_362_67" fill="white">
<path fill-rule="evenodd" clip-rule="evenodd" d="M14.3838 62.6401C17.5278 59.8039 20.5606 56.846 23.5636 53.8611C22.1635 55.1065 20.7403 56.3264 19.2869 57.5127C17.2886 59.1495 15.6725 60.8461 14.3838 62.6401ZM32.1092 45.7878C33.5678 44.349 35.0164 42.9003 36.4641 41.4525C37.4082 40.5083 38.3519 39.5645 39.2978 38.6241C42.6088 35.3349 46.2301 33.5622 51.0931 33.9167C53.2849 34.0793 55.5062 34.0369 57.7231 33.9945C58.7295 33.9753 59.7351 33.9561 60.7365 33.9561C114.514 33.9561 161.89 33.9553 204.733 33.9545C455.181 33.9501 550.775 33.9484 865.138 34.1334C872.007 34.1334 877.631 33.0329 882.581 29.7692C880.956 31.378 879.368 33.0173 877.839 34.7053C871.631 41.5792 864.554 43.6473 855.138 43.6473C540.775 43.4623 445.181 43.464 194.733 43.4684C151.89 43.4692 104.514 43.47 50.7364 43.47C49.7349 43.47 48.7294 43.4892 47.723 43.5084C45.5061 43.5508 43.2848 43.5932 41.093 43.4306C37.5628 43.1733 34.687 44.0368 32.1092 45.7878ZM891.264 21.5746C893.937 19.1104 896.609 16.6437 899.195 14.1031C902.32 11.0502 905.693 9.51388 910.308 9.51388C952.357 9.63206 994.427 9.61236 1036.48 9.53358C1040.78 9.51388 1044.01 10.932 1046.97 13.8076C1051.02 17.7345 1055.12 21.6183 1059.22 25.5033C1063.89 29.9194 1068.56 34.3371 1073.15 38.8218C1076.48 42.0913 1080.12 43.6867 1084.96 43.5291C1088.73 43.4089 1092.51 43.4365 1096.29 43.4641C1099.94 43.4907 1103.59 43.5174 1107.23 43.411C1111.8 43.2731 1115.26 44.77 1118.4 47.8623C1126.49 55.7801 1134.71 63.6389 1143.07 71.3204C1146.55 74.5112 1148.24 78.0565 1147.83 82.6063C1147.72 83.8836 1147.75 85.1793 1147.78 86.4682C1147.79 87.0675 1147.81 87.6653 1147.81 88.2591C1147.81 124.644 1147.81 161.028 1147.81 197.412C1147.8 379.472 1147.79 561.521 1148 743.57C1148 749.733 1146.87 754.767 1143.76 759.184C1145.38 757.741 1147.02 756.334 1148.7 754.973C1155.72 749.301 1158 742.821 1158 734.056C1157.79 552.007 1157.8 369.958 1157.81 187.898C1157.81 151.515 1157.81 115.13 1157.81 78.7452C1157.81 78.1514 1157.79 77.5536 1157.78 76.9544C1157.75 75.6654 1157.72 74.3697 1157.83 73.0924C1158.24 68.5426 1156.55 64.9973 1153.07 61.8065C1144.71 54.125 1136.49 46.2663 1128.4 38.3484C1125.26 35.2561 1121.8 33.7592 1117.23 33.8971C1113.59 34.0035 1109.94 33.9769 1106.29 33.9502C1102.51 33.9226 1098.73 33.895 1094.96 34.0153C1090.12 34.1728 1086.48 32.5774 1083.15 29.3079C1078.56 24.8232 1073.89 20.4055 1069.22 15.9894C1065.12 12.1044 1061.02 8.22065 1056.97 4.29377C1054.01 1.41813 1050.78 5.68547e-06 1046.48 0.0197016C1004.43 0.0984844 962.357 0.118179 920.308 0C915.693 0 912.32 1.5363 909.195 4.5892C906.56 7.1787 903.834 9.69127 901.11 12.2028C897.771 15.2816 894.434 18.3589 891.264 21.5746ZM1134.8 767.783C1131.92 770.304 1129.15 772.944 1126.44 775.642C1127.79 774.775 1129.07 773.703 1130.31 772.404C1131.79 770.856 1133.29 769.312 1134.8 767.783ZM275.641 791.997C272.96 794.612 270.209 797.168 267.457 799.723C267.435 799.744 267.413 799.765 267.39 799.786C268.692 798.485 269.974 797.167 271.228 795.824C272.647 794.297 274.11 793.033 275.641 791.997Z"/>
</mask>
<path fill-rule="evenodd" clip-rule="evenodd" d="M14.3838 62.6401C17.5278 59.8039 20.5606 56.846 23.5636 53.8611C22.1635 55.1065 20.7403 56.3264 19.2869 57.5127C17.2886 59.1495 15.6725 60.8461 14.3838 62.6401ZM32.1092 45.7878C33.5678 44.349 35.0164 42.9003 36.4641 41.4525C37.4082 40.5083 38.3519 39.5645 39.2978 38.6241C42.6088 35.3349 46.2301 33.5622 51.0931 33.9167C53.2849 34.0793 55.5062 34.0369 57.7231 33.9945C58.7295 33.9753 59.7351 33.9561 60.7365 33.9561C114.514 33.9561 161.89 33.9553 204.733 33.9545C455.181 33.9501 550.775 33.9484 865.138 34.1334C872.007 34.1334 877.631 33.0329 882.581 29.7692C880.956 31.378 879.368 33.0173 877.839 34.7053C871.631 41.5792 864.554 43.6473 855.138 43.6473C540.775 43.4623 445.181 43.464 194.733 43.4684C151.89 43.4692 104.514 43.47 50.7364 43.47C49.7349 43.47 48.7294 43.4892 47.723 43.5084C45.5061 43.5508 43.2848 43.5932 41.093 43.4306C37.5628 43.1733 34.687 44.0368 32.1092 45.7878ZM891.264 21.5746C893.937 19.1104 896.609 16.6437 899.195 14.1031C902.32 11.0502 905.693 9.51388 910.308 9.51388C952.357 9.63206 994.427 9.61236 1036.48 9.53358C1040.78 9.51388 1044.01 10.932 1046.97 13.8076C1051.02 17.7345 1055.12 21.6183 1059.22 25.5033C1063.89 29.9194 1068.56 34.3371 1073.15 38.8218C1076.48 42.0913 1080.12 43.6867 1084.96 43.5291C1088.73 43.4089 1092.51 43.4365 1096.29 43.4641C1099.94 43.4907 1103.59 43.5174 1107.23 43.411C1111.8 43.2731 1115.26 44.77 1118.4 47.8623C1126.49 55.7801 1134.71 63.6389 1143.07 71.3204C1146.55 74.5112 1148.24 78.0565 1147.83 82.6063C1147.72 83.8836 1147.75 85.1793 1147.78 86.4682C1147.79 87.0675 1147.81 87.6653 1147.81 88.2591C1147.81 124.644 1147.81 161.028 1147.81 197.412C1147.8 379.472 1147.79 561.521 1148 743.57C1148 749.733 1146.87 754.767 1143.76 759.184C1145.38 757.741 1147.02 756.334 1148.7 754.973C1155.72 749.301 1158 742.821 1158 734.056C1157.79 552.007 1157.8 369.958 1157.81 187.898C1157.81 151.515 1157.81 115.13 1157.81 78.7452C1157.81 78.1514 1157.79 77.5536 1157.78 76.9544C1157.75 75.6654 1157.72 74.3697 1157.83 73.0924C1158.24 68.5426 1156.55 64.9973 1153.07 61.8065C1144.71 54.125 1136.49 46.2663 1128.4 38.3484C1125.26 35.2561 1121.8 33.7592 1117.23 33.8971C1113.59 34.0035 1109.94 33.9769 1106.29 33.9502C1102.51 33.9226 1098.73 33.895 1094.96 34.0153C1090.12 34.1728 1086.48 32.5774 1083.15 29.3079C1078.56 24.8232 1073.89 20.4055 1069.22 15.9894C1065.12 12.1044 1061.02 8.22065 1056.97 4.29377C1054.01 1.41813 1050.78 5.68547e-06 1046.48 0.0197016C1004.43 0.0984844 962.357 0.118179 920.308 0C915.693 0 912.32 1.5363 909.195 4.5892C906.56 7.1787 903.834 9.69127 901.11 12.2028C897.771 15.2816 894.434 18.3589 891.264 21.5746ZM1134.8 767.783C1131.92 770.304 1129.15 772.944 1126.44 775.642C1127.79 774.775 1129.07 773.703 1130.31 772.404C1131.79 770.856 1133.29 769.312 1134.8 767.783ZM275.641 791.997C272.96 794.612 270.209 797.168 267.457 799.723C267.435 799.744 267.413 799.765 267.39 799.786C268.692 798.485 269.974 797.167 271.228 795.824C272.647 794.297 274.11 793.033 275.641 791.997Z" fill="#6EDFE4"/>
<path d="M14.3838 62.6401L12.7595 61.4732L15.7234 64.1251L14.3838 62.6401ZM23.5636 53.8611L24.9735 55.2796L22.2343 52.3668L23.5636 53.8611ZM19.2869 57.5127L18.0223 55.9633L18.0196 55.9655L19.2869 57.5127ZM32.1092 45.7878L30.7047 44.3639L33.233 47.4422L32.1092 45.7878ZM36.4641 41.4525L37.8784 42.8666H37.8784L36.4641 41.4525ZM39.2978 38.6241L37.8882 37.2053L37.8877 37.2058L39.2978 38.6241ZM51.0931 33.9167L51.241 31.9222L51.2385 31.922L51.0931 33.9167ZM57.7231 33.9945L57.7613 35.9942H57.7613L57.7231 33.9945ZM60.7365 33.9561V31.9561V33.9561ZM204.733 33.9545L204.733 31.9545L204.733 33.9545ZM865.138 34.1334L865.137 36.1334H865.138V34.1334ZM882.581 29.7692L883.988 31.1905L881.48 28.0995L882.581 29.7692ZM877.839 34.7053L876.357 33.3625L876.355 33.3648L877.839 34.7053ZM855.138 43.6473L855.137 45.6473H855.138V43.6473ZM194.733 43.4684L194.733 41.4684L194.733 43.4684ZM50.7364 43.47V41.47V43.47ZM47.723 43.5084L47.6848 41.5088H47.6848L47.723 43.5084ZM41.093 43.4306L41.2409 41.4361L41.2384 41.4359L41.093 43.4306ZM891.264 21.5746L889.84 20.1708L892.62 23.045L891.264 21.5746ZM899.195 14.1031L897.797 12.6725L897.793 12.6764L899.195 14.1031ZM910.308 9.51388L910.313 7.51388H910.308V9.51388ZM1036.48 9.53358L1036.48 11.5336L1036.49 11.5336L1036.48 9.53358ZM1046.97 13.8076L1045.57 15.242L1045.58 15.2432L1046.97 13.8076ZM1059.22 25.5033L1057.85 26.9557V26.9558L1059.22 25.5033ZM1073.15 38.8218L1074.55 37.3943L1074.54 37.3911L1073.15 38.8218ZM1084.96 43.5291L1084.9 41.5302L1084.9 41.5302L1084.96 43.5291ZM1096.29 43.4641L1096.31 41.4641L1096.29 43.4641ZM1107.23 43.411L1107.29 45.4101L1107.29 45.4101L1107.23 43.411ZM1118.4 47.8623L1117 49.2885L1117 49.2917L1118.4 47.8623ZM1143.07 71.3204L1141.72 72.7931L1141.72 72.7939L1143.07 71.3204ZM1147.83 82.6063L1145.84 82.4251L1145.84 82.43L1147.83 82.6063ZM1147.78 86.4682L1145.78 86.5171V86.5171L1147.78 86.4682ZM1147.81 197.412L1149.81 197.412L1147.81 197.412ZM1148 743.57H1150V743.567L1148 743.57ZM1143.76 759.184L1142.13 758.034L1145.1 760.675L1143.76 759.184ZM1148.7 754.973L1149.96 756.529L1149.96 756.528L1148.7 754.973ZM1158 734.056H1160V734.054L1158 734.056ZM1157.81 187.898L1159.81 187.899L1157.81 187.898ZM1157.78 76.9544L1155.78 77.0032V77.0032L1157.78 76.9544ZM1157.83 73.0924L1155.84 72.9113L1155.84 72.9161L1157.83 73.0924ZM1153.07 61.8065L1151.72 63.2793L1151.72 63.28L1153.07 61.8065ZM1128.4 38.3484L1127 39.7746L1127 39.7779L1128.4 38.3484ZM1117.23 33.8971L1117.29 35.8962L1117.29 35.8962L1117.23 33.8971ZM1106.29 33.9502L1106.31 31.9503L1106.29 33.9502ZM1094.96 34.0153L1094.9 32.0163L1094.9 32.0163L1094.96 34.0153ZM1083.15 29.3079L1084.55 27.8804L1084.54 27.8772L1083.15 29.3079ZM1069.22 15.9894L1067.85 17.4419V17.4419L1069.22 15.9894ZM1056.97 4.29377L1055.57 5.72809L1055.58 5.72935L1056.97 4.29377ZM1046.48 0.0197016L1046.48 2.01971L1046.49 2.01968L1046.48 0.0197016ZM920.308 0L920.313 -2H920.308V0ZM909.195 4.5892L907.797 3.15863L907.793 3.16256L909.195 4.5892ZM901.11 12.2028L899.755 10.7324V10.7325L901.11 12.2028ZM1134.8 767.783L1136.22 769.188L1133.48 766.279L1134.8 767.783ZM1126.44 775.642L1125.03 774.225L1127.53 777.324L1126.44 775.642ZM1130.31 772.404L1128.86 771.02L1128.86 771.023L1130.31 772.404ZM275.641 791.997L277.038 793.429L274.521 790.341L275.641 791.997ZM267.457 799.723L266.096 798.258L266.095 798.259L267.457 799.723ZM267.39 799.786L265.977 798.371L268.752 801.25L267.39 799.786ZM271.228 795.824L272.69 797.188L272.692 797.185L271.228 795.824ZM15.7234 64.1251C18.9037 61.2562 21.9637 58.2713 24.9735 55.2796L22.1536 52.4426C19.1575 55.4207 16.1518 58.3516 13.0441 61.155L15.7234 64.1251ZM20.5516 59.0621C22.0297 57.8556 23.4746 56.617 24.8928 55.3554L22.2343 52.3668C20.8524 53.596 19.4509 54.7973 18.0223 55.9633L20.5516 59.0621ZM16.0081 63.8069C17.1816 62.1734 18.672 60.6016 20.5542 59.06L18.0196 55.9655C15.9051 57.6974 14.1635 59.5188 12.7595 61.4732L16.0081 63.8069ZM33.5137 47.2116C34.9781 45.7672 36.4315 44.3136 37.8784 42.8666L35.0499 40.0383C33.6013 41.4869 32.1576 42.9308 30.7047 44.3639L33.5137 47.2116ZM37.8784 42.8666C38.8228 41.9221 39.7644 40.9804 40.7079 40.0424L37.8877 37.2058C36.9394 38.1487 35.9936 39.0945 35.0499 40.0383L37.8784 42.8666ZM40.7073 40.043C43.7019 37.0681 46.7822 35.6078 50.9477 35.9114L51.2385 31.922C45.6779 31.5166 41.5157 33.6016 37.8882 37.2053L40.7073 40.043ZM50.9452 35.9113C53.2457 36.0819 55.5607 36.0362 57.7613 35.9942L57.685 31.9949C55.4517 32.0376 53.3242 32.0767 51.241 31.9222L50.9452 35.9113ZM57.7613 35.9942C58.771 35.9749 59.7574 35.9561 60.7365 35.9561V31.9561C59.7128 31.9561 58.6881 31.9758 57.685 31.9949L57.7613 35.9942ZM60.7365 35.9561C114.514 35.9561 161.89 35.9553 204.733 35.9545L204.733 31.9545C161.89 31.9553 114.514 31.9561 60.7365 31.9561V35.9561ZM204.733 35.9545C455.181 35.9501 550.775 35.9484 865.137 36.1334L865.139 32.1334C550.776 31.9484 455.182 31.9501 204.733 31.9545L204.733 35.9545ZM865.138 36.1334C872.218 36.1334 878.282 34.9994 883.682 31.4389L881.48 28.0995C876.98 31.0665 871.795 32.1334 865.138 32.1334V36.1334ZM879.321 36.048C880.821 34.3927 882.382 32.78 883.988 31.1905L881.174 28.3479C879.529 29.976 877.915 31.6419 876.357 33.3625L879.321 36.048ZM855.138 45.6473C864.92 45.6473 872.62 43.4681 879.323 36.0458L876.355 33.3648C870.642 39.6904 864.188 41.6473 855.138 41.6473V45.6473ZM194.733 45.4684C445.181 45.464 540.774 45.4623 855.137 45.6473L855.139 41.6473C540.776 41.4623 445.181 41.464 194.733 41.4684L194.733 45.4684ZM50.7364 45.47C104.514 45.47 151.89 45.4692 194.733 45.4684L194.733 41.4684C151.889 41.4692 104.514 41.47 50.7364 41.47V45.47ZM47.7612 45.5081C48.7708 45.4888 49.7572 45.47 50.7364 45.47V41.47C49.7126 41.47 48.688 41.4896 47.6848 41.5088L47.7612 45.5081ZM40.945 45.4251C43.2455 45.5958 45.5606 45.5501 47.7612 45.5081L47.6848 41.5088C45.4515 41.5514 43.324 41.5906 41.2409 41.4361L40.945 45.4251ZM33.233 47.4422C35.4457 45.9392 37.8758 45.2014 40.9475 45.4253L41.2384 41.4359C37.2498 41.1451 33.9283 42.1344 30.9854 44.1334L33.233 47.4422ZM892.62 23.045C895.29 20.5836 897.985 18.0961 900.597 15.5297L897.793 12.6764C895.234 15.1914 892.584 17.6371 889.909 20.1043L892.62 23.045ZM900.593 15.5336C903.371 12.8188 906.253 11.5139 910.308 11.5139V7.51388C905.133 7.51388 901.268 9.28151 897.797 12.6725L900.593 15.5336ZM910.302 11.5139C952.356 11.6321 994.429 11.6124 1036.48 11.5336L1036.47 7.53358C994.425 7.61236 952.359 7.63205 910.313 7.51389L910.302 11.5139ZM1036.49 11.5336C1040.24 11.5164 1042.97 12.7109 1045.57 15.242L1048.36 12.3733C1045.05 9.1531 1041.32 7.51138 1036.47 7.5336L1036.49 11.5336ZM1045.58 15.2432C1049.63 19.18 1053.75 23.0721 1057.85 26.9557L1060.6 24.0509C1056.49 20.1644 1052.4 16.2891 1048.36 12.3721L1045.58 15.2432ZM1057.85 26.9558C1062.52 31.3736 1067.17 35.7806 1071.75 40.2524L1074.54 37.3911C1069.94 32.8937 1065.26 28.4652 1060.6 24.0509L1057.85 26.9558ZM1071.75 40.2492C1075.43 43.8696 1079.59 45.7049 1085.03 45.5281L1084.9 41.5302C1080.65 41.6686 1077.52 40.313 1074.55 37.3943L1071.75 40.2492ZM1085.03 45.5281C1088.75 45.4093 1092.49 45.4364 1096.28 45.464L1096.31 41.4641C1092.53 41.4366 1088.71 41.4084 1084.9 41.5302L1085.03 45.5281ZM1096.28 45.464C1099.92 45.4906 1103.61 45.5178 1107.29 45.4101L1107.17 41.4118C1103.57 41.517 1099.96 41.4908 1096.31 41.4641L1096.28 45.464ZM1107.29 45.4101C1111.28 45.2897 1114.22 46.5522 1117 49.2885L1119.81 46.4361C1116.3 42.9878 1112.32 41.2565 1107.17 41.4119L1107.29 45.4101ZM1117 49.2917C1125.11 57.2199 1133.34 65.0938 1141.72 72.7931L1144.42 69.8477C1136.08 62.184 1127.88 54.3404 1119.8 46.4328L1117 49.2917ZM1141.72 72.7939C1144.83 75.6506 1146.18 78.6151 1145.84 82.4251L1149.82 82.7875C1150.3 77.4979 1148.26 73.3717 1144.42 69.8469L1141.72 72.7939ZM1145.84 82.43C1145.71 83.8387 1145.75 85.2478 1145.78 86.5171L1149.78 86.4194C1149.75 85.1108 1149.72 83.9286 1149.82 82.7826L1145.84 82.43ZM1145.78 86.5171C1145.8 87.1203 1145.81 87.6937 1145.81 88.2591H1149.81C1149.81 87.6368 1149.79 87.0147 1149.78 86.4194L1145.78 86.5171ZM1145.81 88.2591C1145.81 124.644 1145.81 161.028 1145.81 197.412L1149.81 197.412C1149.81 161.029 1149.81 124.644 1149.81 88.2591H1145.81ZM1145.81 197.412C1145.8 379.472 1145.79 561.522 1146 743.572L1150 743.567C1149.79 561.52 1149.8 379.473 1149.81 197.412L1145.81 197.412ZM1146 743.57C1146 749.48 1144.92 754.063 1142.13 758.034L1145.4 760.335C1148.82 755.47 1150 749.986 1150 743.57H1146ZM1147.45 753.418C1145.73 754.802 1144.06 756.231 1142.43 757.694L1145.1 760.675C1146.69 759.252 1148.31 757.866 1149.96 756.529L1147.45 753.418ZM1156 734.056C1156 738.271 1155.45 741.795 1154.14 744.896C1152.84 747.978 1150.73 750.76 1147.45 753.418L1149.96 756.528C1153.69 753.514 1156.23 750.219 1157.82 746.452C1159.41 742.703 1160 738.606 1160 734.056H1156ZM1155.81 187.898C1155.8 369.958 1155.79 552.008 1156 734.058L1160 734.054C1159.79 552.006 1159.8 369.959 1159.81 187.899L1155.81 187.898ZM1155.81 78.7452C1155.81 115.13 1155.81 151.514 1155.81 187.898L1159.81 187.899C1159.81 151.515 1159.81 115.13 1159.81 78.7452H1155.81ZM1155.78 77.0032C1155.8 77.6064 1155.81 78.1799 1155.81 78.7452H1159.81C1159.81 78.1229 1159.79 77.5008 1159.78 76.9055L1155.78 77.0032ZM1155.84 72.9161C1155.71 74.3248 1155.75 75.7339 1155.78 77.0032L1159.78 76.9055C1159.75 75.5969 1159.72 74.4147 1159.82 73.2687L1155.84 72.9161ZM1151.72 63.28C1154.83 66.1368 1156.18 69.1012 1155.84 72.9113L1159.82 73.2736C1160.3 67.9841 1158.26 63.8579 1154.42 60.3331L1151.72 63.28ZM1127 39.7779C1135.11 47.706 1143.34 55.5799 1151.72 63.2793L1154.42 60.3338C1146.08 52.6701 1137.88 44.8265 1129.8 36.919L1127 39.7779ZM1117.29 35.8962C1121.28 35.7758 1124.22 37.0383 1127 39.7746L1129.81 36.9222C1126.3 33.4739 1122.32 31.7426 1117.17 31.898L1117.29 35.8962ZM1106.28 35.9502C1109.92 35.9768 1113.61 36.0039 1117.29 35.8962L1117.17 31.8979C1113.57 32.0031 1109.96 31.977 1106.31 31.9503L1106.28 35.9502ZM1095.03 36.0142C1098.75 35.8955 1102.49 35.9225 1106.28 35.9502L1106.31 31.9503C1102.53 31.9227 1098.71 31.8946 1094.9 32.0163L1095.03 36.0142ZM1081.75 30.7353C1085.43 34.3558 1089.59 36.191 1095.03 36.0142L1094.9 32.0163C1090.65 32.1547 1087.52 30.7991 1084.55 27.8804L1081.75 30.7353ZM1067.85 17.4419C1072.52 21.8597 1077.17 26.2667 1081.75 30.7385L1084.54 27.8772C1079.94 23.3798 1075.26 18.9513 1070.6 14.537L1067.85 17.4419ZM1055.58 5.72935C1059.63 9.66613 1063.75 13.5582 1067.85 17.4419L1070.6 14.537C1066.49 10.6506 1062.4 6.77517 1058.36 2.85818L1055.58 5.72935ZM1046.49 2.01968C1050.24 2.00251 1052.97 3.19704 1055.57 5.72809L1058.36 2.85944C1055.05 -0.360781 1051.32 -2.0025 1046.47 -1.98028L1046.49 2.01968ZM920.302 1.99999C962.356 2.11818 1004.43 2.09848 1046.48 2.0197L1046.47 -1.98029C1004.43 -1.90152 962.359 -1.88183 920.313 -1.99999L920.302 1.99999ZM910.593 6.01977C913.372 3.30497 916.253 2 920.308 2V-2C915.133 -2 911.268 -0.232371 907.797 3.15864L910.593 6.01977ZM902.466 13.6732C905.186 11.1653 907.935 8.63131 910.597 6.01584L907.793 3.16256C905.184 5.7261 902.483 8.21724 899.755 10.7324L902.466 13.6732ZM892.689 22.9785C895.819 19.8026 899.121 16.7576 902.466 13.6732L899.755 10.7325C896.421 13.8057 893.048 16.9152 889.84 20.1708L892.689 22.9785ZM1133.48 766.279C1130.56 768.836 1127.76 771.507 1125.03 774.225L1127.85 777.059C1130.54 774.381 1133.28 771.772 1136.11 769.286L1133.48 766.279ZM1128.86 771.023C1127.72 772.222 1126.56 773.189 1125.36 773.961L1127.53 777.324C1129.02 776.361 1130.42 775.184 1131.75 773.785L1128.86 771.023ZM1133.37 766.377C1131.85 767.916 1130.35 769.468 1128.86 771.02L1131.75 773.788C1133.23 772.244 1134.72 770.708 1136.22 769.188L1133.37 766.377ZM274.245 790.566C271.584 793.161 268.851 795.7 266.096 798.258L268.818 801.189C271.567 798.636 274.336 796.064 277.038 793.429L274.245 790.566ZM266.095 798.259C266.085 798.269 266.074 798.279 266.063 798.289C266.052 798.299 266.04 798.31 266.028 798.321L268.752 801.25C268.763 801.24 268.773 801.23 268.785 801.22C268.796 801.21 268.807 801.199 268.819 801.188L266.095 798.259ZM269.765 794.459C268.531 795.782 267.266 797.084 265.977 798.371L268.803 801.201C270.119 799.887 271.418 798.551 272.69 797.188L269.765 794.459ZM274.521 790.341C272.852 791.47 271.275 792.836 269.763 794.462L272.692 797.185C274.018 795.759 275.368 794.597 276.762 793.654L274.521 790.341Z" fill="#6EDFE4" mask="url(#path-3-inside-1_362_67)"/>
</g>
<defs>
<filter id="filter0_b_362_67" x="-15" y="-5.48611" width="1178" height="842.486" filterUnits="userSpaceOnUse" color-interpolation-filters="sRGB">
<feFlood flood-opacity="0" result="BackgroundImageFix"/>
<feGaussianBlur in="BackgroundImageFix" stdDeviation="7.5"/>
<feComposite in2="SourceAlpha" operator="in" result="effect1_backgroundBlur_362_67"/>
<feBlend mode="normal" in="SourceGraphic" in2="effect1_backgroundBlur_362_67" result="shape"/>
</filter>
<filter id="filter1_b_362_67" x="-10.6162" y="-25" width="1193.61" height="849.786" filterUnits="userSpaceOnUse" color-interpolation-filters="sRGB">
<feFlood flood-opacity="0" result="BackgroundImageFix"/>
<feGaussianBlur in="BackgroundImageFix" stdDeviation="12.5"/>
<feComposite in2="SourceAlpha" operator="in" result="effect1_backgroundBlur_362_67"/>
<feBlend mode="normal" in="SourceGraphic" in2="effect1_backgroundBlur_362_67" result="shape"/>
</filter>
</defs>
</svg>
